<svg xmlns="http://www.w3.org/2000/svg" width="167" height="47" viewBox="0 0 167 47" style="background:#fff">
    <g fill="none" fill-rule="evenodd">
        <g>
            <path fill="#FFF" d="M0 0H167V47H0z"/>
            <path fill="#2369A4" d="M0.006 0L23.517 23.191 47 0.027 47 47 43.496 43.544 43.496 8.582 23.522 28.285 3.588 8.621 3.588 43.454 0 46.994z"/>
            <path fill="#35BCE1" d="M8 19L23.037 34.541 38 19.076 38 38.996 34.613 35.496 34.613 28.04 23.041 40 11.478 28.05 11.478 35.395 8.026 38.963z"/>
            <g fill="#1A1919">
                <path d="M1.005 23.108L3.74.298C3.773.065 3.806 0 4.034 0h.326c.13 0 .26.033.39.297l10.26 20.034L25.238.297c.13-.264.26-.297.39-.297h.359c.228 0 .26.066.293.297l2.704 22.81c.065.331-.066.464-.391.464h-1.27c-.326 0-.424-.133-.457-.463L24.847 5.454l-9.185 18.084c-.13.297-.293.462-.554.462h-.195c-.293 0-.391-.165-.587-.462L5.24 5.454 3.122 23.108c-.032.33-.098.463-.423.463h-1.27c-.326 0-.457-.133-.424-.463M35 1.46c0-.361.093-.46.431-.46h1.139c.369 0 .43.132.43.46v22.08c0 .362-.092.46-.43.46H35.43c-.338 0-.431-.098-.431-.46V1.46zM46.097 2.84v10.317h5.842c4.098 0 5.872-2.038 5.872-5.258 0-3.548-2.387-5.06-5.872-5.06h-5.842zM44 23.54V1.46c0-.362.129-.46.451-.46H52.1c3.679 0 7.777 1.577 7.777 6.9 0 3.942-2.066 6.046-5.163 6.867l6.195 8.707c.227.361 0 .526-.355.526h-1.42c-.354 0-.58-.165-.774-.46l-6.035-8.51h-6.228v8.51c0 .394-.13.46-.452.46h-1.194c-.322 0-.451-.066-.451-.46zM65.442 0h1.292c.34 0 .476.101.476.472V13.7c0 5.89 3.059 8.347 7.273 8.347 4.214 0 7.307-2.457 7.307-8.347V.472c0-.37.137-.472.476-.472h1.292c.374 0 .442.101.442.472v13.396C84 20.566 80.023 24 74.483 24 68.943 24 65 20.566 65 13.868V.472c0-.405.102-.472.442-.472M90.722 6.796c0 2.917 3.362 3.646 7.198 4.143 4.413.564 8.08 1.923 8.08 6.199 0 3.547-2.75 6.862-9.03 6.862-3.158 0-6.111-.828-8.726-2.586-.306-.198-.306-.331-.102-.663l.51-.861c.135-.2.203-.299.339-.299.102 0 .204.067.34.133 2.173 1.492 5.092 2.287 7.842 2.287 3.09 0 6.586-.995 6.586-4.773 0-2.851-2.58-3.846-7.197-4.475-3.7-.531-8.08-1.591-8.08-5.901 0-2.719 1.9-6.862 8.555-6.862 3.43 0 5.975 1.093 8.318 2.552.305.199.271.365.136.63l-.51.862c-.1.2-.203.299-.373.299-.101 0-.17-.033-.306-.1-2.24-1.492-4.515-2.254-6.993-2.254-5.432 0-6.587 3.05-6.587 4.807M.004 45.33l2.15-17.106c.025-.175.051-.224.23-.224h.255c.103 0 .205.025.308.224l8.061 15.024 8.036-15.024c.103-.2.205-.224.307-.224h.282c.179 0 .205.05.23.224l2.124 17.107c.051.247-.051.346-.307.346h-.998c-.256 0-.333-.099-.359-.346l-1.586-13.24-7.217 13.562c-.102.223-.23.347-.435.347h-.154c-.23 0-.306-.124-.46-.347L3.331 32.09 1.667 45.33c-.025.247-.076.346-.332.346H.337c-.257 0-.359-.099-.333-.346M28.527 39.683h7.96l-3.967-8.8h-.025l-3.968 8.8zm-4.498 5.966l8.163-17.348c.1-.176.151-.301.278-.301h.075c.1 0 .177.125.253.3l8.162 17.35c.102.2 0 .35-.202.35H39.57c-.201 0-.303-.075-.455-.35l-2.046-4.513H27.92l-2.047 4.512c-.127.276-.228.351-.455.351H24.23c-.202 0-.278-.15-.202-.35zM45.604 29.44v8.074h4.467c3.133 0 4.49-1.594 4.49-4.115 0-2.776-1.826-3.96-4.49-3.96h-4.467zM44 45.64V28.36c0-.283.099-.36.346-.36h5.848c2.813 0 5.947 1.234 5.947 5.4 0 3.085-1.58 4.731-3.949 5.375l4.739 6.813c.173.284 0 .412-.272.412h-1.085c-.272 0-.445-.128-.593-.36l-4.614-6.66h-4.763v6.66c0 .308-.099.36-.345.36h-.913c-.247 0-.346-.052-.346-.36zM61 28.36c0-.283.076-.36.33-.36h.994c.23 0 .331.051.331.36v7.431l8.43-7.431c.305-.283.457-.36.712-.36h1.4c.23 0 .357.128.128.36l-9.32 8.229 9.88 9.05c.23.258.077.361-.127.361h-1.502c-.23 0-.408-.103-.663-.36l-8.938-8.178v8.178c0 .308-.102.36-.33.36h-.994c-.255 0-.331-.078-.331-.36V28.36zM77.356 28h11.288c.254 0 .356.103.356.36v.77c0 .258-.102.335-.356.335h-9.989v6.686h9.53c.28 0 .356.103.356.36v.772c0 .283-.076.36-.356.36h-9.53v6.865h9.989c.28 0 .356.104.356.36v.772c0 .283-.076.36-.356.36H77.356c-.28 0-.356-.077-.356-.36V28.36c0-.257.101-.36.356-.36M91 29.183v-.823c0-.282.076-.36.358-.36h14.284c.307 0 .358.103.358.36v.823c0 .257-.076.36-.358.36h-6.323V45.64c0 .257-.051.36-.333.36h-.972c-.282 0-.358-.103-.358-.36V29.543h-6.298c-.282 0-.358-.103-.358-.36" transform="translate(61)"/>
            </g>
        </g>
    </g>
</svg>
